<?xml version="1.0" encoding="UTF-8" standalone="no"?>
<!DOCTYPE svg PUBLIC "-//W3C//DTD SVG 1.1//EN" "http://www.w3.org/Graphics/SVG/1.1/DTD/svg11.dtd">
<svg width="100%" height="100%" viewBox="0 0 128 128" version="1.1" xmlns="http://www.w3.org/2000/svg" xmlns:xlink="http://www.w3.org/1999/xlink" xml:space="preserve" xmlns:serif="http://www.serif.com/" style="fill-rule:evenodd;clip-rule:evenodd;stroke-linecap:round;stroke-linejoin:round;stroke-miterlimit:1.5;">
    <path d="M45,49C24.226,49.865 9.757,78.129 43,86C33.22,92.965 26.111,101.367 25,113C24.658,116.584 45.284,109.083 53,103C58.131,98.955 70.536,97.944 79,103C86.583,107.53 101.334,113.896 103,111C105.959,105.855 102.043,101.478 98,96C113.186,87.952 97.147,74.71 92,84C84.975,77.904 76.691,75.429 67,77C70.787,69.667 70.213,62.333 67,55C81.369,45.911 88.631,34.089 90,20C90.716,12.632 66.54,28.701 58,49L53,49C58.763,33.068 57.363,6.235 52,11C44.662,17.521 42.195,31.7 45,49Z" style="fill:rgb(148,95,75);stroke:rgb(148,95,75);stroke-width:1px;"/>
</svg>
